:FULLY-SPECIFIED
:FORCE-ALL-JOINTS-BE-3DOF
:DEGREES
476
root 3.63332 16.113 -7.07193 6.19803 58.7488 -6.10469
lfemur -38.9502 -0.694723 -18.2704
ltibia 51.8429 0 0
lfoot -21.066 -3.9173 0
ltoes 12.4286 0 0
rfemur -35.762 -1.60865 11.4654
rtibia 63.2555 0 0
rfoot 5.08136 -3.08122 0
rtoes -28.9967 0 0
lowerback 4.10489 0.0651258 1.71322
upperback 0.21325 0.180091 1.11957
thorax -2.01926 0.0908351 0.190437
lowerneck -8.1039 -6.19622 0.771245
upperneck 4.124 -8.41981 1.16948
head 2.85404 -4.13184 -0.226899
lclavicle -2.53602e-14 -4.09538e-15 0
lhumerus -46.286 -28.933 109.189
lradius 54.8573 0 0
lwrist 3.63904 0 0
lhand -7.05988 -3.07162 0
lfingers 7.12502 0 0
lthumb 18.7603 25.2856 0
rclavicle -2.53602e-14 -4.09538e-15 0
rhumerus -47.5219 13.966 -92.5583
rradius 72.5603 0 0
rwrist 20.3818 0 0
rhand -18.0252 -21.8507 0
rfingers 7.12502 0 0
rthumb 8.24219 -771.551 0
477
root 3.7486 16.149 -6.99186 6.25984 60.7614 -5.59977
lfemur -37.9364 -2.14847 -18.7605
ltibia 51.198 0 0
lfoot -21.2083 -4.00531 0
ltoes 13.0231 0 0
rfemur -37.4517 -1.16561 11.4225
rtibia 64.9136 0 0
rfoot 5.78327 -2.22446 0
rtoes -27.7423 0 0
lowerback 4.12092 0.00970817 1.44257
upperback 0.197225 0.0937386 1.07134
thorax -2.04849 0.049344 0.296881
lowerneck -8.15903 -6.4417 0.588318
upperneck 4.34126 -8.73738 1.22579
head 2.94566 -4.28726 -0.199636
lclavicle -2.44293e-14 -4.3699e-15 0
lhumerus -46.5367 -29.1936 109.628
lradius 54.9445 0 0
lwrist 3.64393 0 0
lhand -5.8577 -2.73563 0
lfingers 7.12502 0 0
lthumb 19.917 25.5309 0
rclavicle -2.44293e-14 -4.3699e-15 0
rhumerus -47.4237 14.8697 -92.9285
rradius 72.9667 0 0
rwrist 20.9088 0 0
rhand -17.5001 -21.7327 0
rfingers 7.12502 0 0
rthumb 8.74903 -771.417 0
478
root 3.86132 16.1842 -6.91357 6.32027 62.7291 -5.1061
lfemur -36.9451 -3.56984 -19.2397
ltibia 50.5674 0 0
lfoot -21.3474 -4.09136 0
ltoes 13.6044 0 0
rfemur -39.1037 -0.73243 11.3806
rtibia 66.5346 0 0
rfoot 6.46954 -1.38677 0
rtoes -26.5159 0 0
lowerback 4.1366 -0.0444754 1.17794
upperback 0.181558 0.00930966 1.02418
thorax -2.07707 0.00877689 0.400955
lowerneck -8.21293 -6.68172 0.409464
upperneck 4.55367 -9.04787 1.28085
head 3.03523 -4.43922 -0.172981
lclavicle -2.35192e-14 -4.63832e-15 0
lhumerus -46.7819 -29.4484 110.057
lradius 55.0297 0 0
lwrist 3.64872 0 0
lhand -4.68228 -2.40713 0
lfingers 7.12502 0 0
lthumb 21.048 25.7708 0
rclavicle -2.35192e-14 -4.63832e-15 0
rhumerus -47.3276 15.7532 -93.2904
rradius 73.3641 0 0
rwrist 21.4241 0 0
rhand -16.9867 -21.6173 0
rfingers 7.12502 0 0
rthumb 9.24458 -771.286 0
479
root 3.9709 16.2184 -6.83746 6.37902 64.642 -4.62617
lfemur -35.9814 -4.95164 -19.7056
ltibia 49.9543 0 0
lfoot -21.4826 -4.17501 0
ltoes 14.1696 0 0
rfemur -40.7098 -0.311312 11.3399
rtibia 68.1106 0 0
rfoot 7.13672 -0.572401 0
rtoes -25.3236 0 0
lowerback 4.15184 -0.0971508 0.920686
upperback 0.166326 -0.0727691 0.97834
thorax -2.10486 -0.030661 0.502132
lowerneck -8.26534 -6.91505 0.235589
upperneck 4.76018 -9.34972 1.33438
head 3.12232 -4.58694 -0.147067
lclavicle -2.26343e-14 -4.89926e-15 0
lhumerus -47.0203 -29.6961 110.474
lradius 55.1126 0 0
lwrist 3.65337 0 0
lhand -3.53959 -2.08778 0
lfingers 7.12502 0 0
lthumb 22.1474 26.004 0
rclavicle -2.26343e-14 -4.89926e-15 0
rhumerus -47.2343 16.6122 -93.6422
rradius 73.7504 0 0
rwrist 21.925 0 0
rhand -16.4876 -21.5051 0
rfingers 7.12502 0 0
rthumb 9.72633 -771.159 0
480
root 4.07677 16.2515 -6.76392 6.43578 66.4902 -4.16247
lfemur -35.0503 -6.28669 -20.1557
ltibia 49.362 0 0
lfoot -21.6132 -4.25583 0
ltoes 14.7156 0 0
rfemur -42.2616 0.0955562 11.3005
rtibia 69.6332 0 0
rfoot 7.78131 0.21441 0
rtoes -24.1717 0 0
lowerback 4.16656 -0.148044 0.672133
upperback 0.15161 -0.15207 0.934048
thorax -2.13171 -0.0687644 0.599886
lowerneck -8.31597 -7.14049 0.067598
upperneck 4.95969 -9.64136 1.3861
head 3.20645 -4.72967 -0.122031
lclavicle -2.17795e-14 -5.15137e-15 0
lhumerus -47.2506 -29.9354 110.878
lradius 55.1926 0 0
lwrist 3.65787 0 0
lhand -2.43556 -1.77923 0
lfingers 7.12502 0 0
lthumb 23.2097 26.2293 0
rclavicle -2.17795e-14 -5.15137e-15 0
rhumerus -47.144 17.4421 -93.9821
rradius 74.1237 0 0
rwrist 22.409 0 0
rhand -16.0053 -21.3967 0
rfingers 7.12502 0 0
rthumb 10.1918 -771.037 0
481
root 4.17836 16.2832 -6.69336 6.49025 68.2638 -3.71752
lfemur -34.1568 -7.56778 -20.5877
ltibia 48.7937 0 0
lfoot -21.7386 -4.33338 0
ltoes 15.2395 0 0
rfemur -43.7506 0.485981 11.2627
rtibia 71.0943 0 0
rfoot 8.39986 0.969423 0
rtoes -23.0663 0 0
lowerback 4.18069 -0.19688 0.433625
upperback 0.137488 -0.228167 0.891546
thorax -2.15747 -0.105328 0.693689
lowerneck -8.36456 -7.35681 -0.0936043
upperneck 5.15115 -9.92121 1.43573
head 3.28719 -4.86663 -0.0980061
lclavicle -2.09591e-14 -5.39329e-15 0
lhumerus -47.4715 -30.1651 111.265
lradius 55.2695 0 0
lwrist 3.66219 0 0
lhand -1.37615 -1.48315 0
lfingers 7.12502 0 0
lthumb 24.229 26.4455 0
rclavicle -2.09591e-14 -5.39329e-15 0
rhumerus -47.0575 18.2385 -94.3083
rradius 74.4818 0 0
rwrist 22.8734 0 0
rhand -15.5426 -21.2927 0
rfingers 7.12502 0 0
rthumb 10.6384 -770.919 0
482
root 4.2751 16.3134 -6.62616 6.54212 69.9526 -3.29381
lfemur -33.306 -8.78773 -20.999
ltibia 48.2524 0 0
lfoot -21.858 -4.40723 0
ltoes 15.7384 0 0
rfemur -45.1686 0.857771 11.2267
rtibia 72.4857 0 0
rfoot 8.98888 1.6884 0
rtoes -22.0137 0 0
lowerback 4.19414 -0.243385 0.206501
upperback 0.124041 -0.300631 0.851072
thorax -2.182 -0.140146 0.783014
lowerneck -8.41082 -7.56281 -0.247112
upperneck 5.33346 -10.1877 1.48299
head 3.36407 -4.99705 -0.0751281
lclavicle -2.01779e-14 -5.62366e-15 0
lhumerus -47.682 -30.3837 111.633
lradius 55.3426 0 0
lwrist 3.66629 0 0
lhand -0.36731 -1.2012 0
lfingers 7.12502 0 0
lthumb 25.1997 26.6514 0
rclavicle -2.01779e-14 -5.62366e-15 0
rhumerus -46.975 18.9969 -94.6189
rradius 74.8229 0 0
rwrist 23.3157 0 0
rhand -15.1019 -21.1936 0
rfingers 7.12502 0 0
rthumb 11.0638 -770.807 0
483
root 4.36643 16.3419 -6.56273 6.59108 71.5469 -2.89383
lfemur -32.5028 -9.93934 -21.3873
ltibia 47.7415 0 0
lfoot -21.9707 -4.47695 0
ltoes 16.2094 0 0
rfemur -46.5071 1.20873 11.1928
rtibia 73.7991 0 0
rfoot 9.54491 2.3671 0
rtoes -21.02 0 0
lowerback 4.20684 -0.287285 -0.00789938
upperback 0.111346 -0.369036 0.812866
thorax -2.20516 -0.173014 0.867336
lowerneck -8.4545 -7.75727 -0.392021
upperneck 5.50556 -10.4393 1.5276
head 3.43664 -5.12017 -0.0535317
lclavicle -1.94405e-14 -5.84113e-15 0
lhumerus -47.8806 -30.5902 111.981
lradius 55.4117 0 0
lwrist 3.67017 0 0
lhand 0.585018 -0.935052 0
lfingers 7.12502 0 0
lthumb 26.116 26.8458 0
rclavicle -1.94405e-14 -5.84113e-15 0
rhumerus -46.8972 19.7127 -94.9121
rradius 75.1448 0 0
rwrist 23.7332 0 0
rhand -14.686 -21.1001 0
rfingers 7.12502 0 0
rthumb 11.4653 -770.701 0
484
root 4.45176 16.3686 -6.50346 6.63683 73.0366 -2.52009
lfemur -31.7524 -11.0154 -21.7501
ltibia 47.2641 0 0
lfoot -22.076 -4.54209 0
ltoes 16.6495 0 0
rfemur -47.7578 1.53668 11.1611
rtibia 75.0263 0 0
rfoot 10.0645 3.00128 0
rtoes -20.0915 0 0
lowerback 4.21871 -0.328305 -0.208237
upperback 0.0994849 -0.432954 0.777166
thorax -2.2268 -0.203726 0.946126
lowerneck -8.49531 -7.93898 -0.527425
upperneck 5.66638 -10.6743 1.56929
head 3.50446 -5.23521 -0.0333518
lclavicle -1.87515e-14 -6.04434e-15 0
lhumerus -48.0662 -30.7831 112.306
lradius 55.4762 0 0
lwrist 3.6738 0 0
lhand 1.47488 -0.686357 0
lfingers 7.12502 0 0
lthumb 26.9722 27.0274 0
rclavicle -1.87515e-14 -6.04434e-15 0
rhumerus -46.8245 20.3816 -95.1861
rradius 75.4457 0 0
rwrist 24.1233 0 0
rhand -14.2973 -21.0128 0
rfingers 7.12502 0 0
rthumb 11.8404 -770.602 0
485
root 4.53054 16.3932 -6.44874 6.67906 74.4118 -2.17508
lfemur -31.0596 -12.0087 -22.085
ltibia 46.8234 0 0
lfoot -22.1732 -4.60223 0
ltoes 17.0558 0 0
rfemur -48.9124 1.83941 11.1318
rtibia 76.1592 0 0
rfoot 10.5441 3.58671 0
rtoes -19.2344 0 0
lowerback 4.22967 -0.366172 -0.393173
upperback 0.0885353 -0.491958 0.744211
thorax -2.24678 -0.232077 1.01886
lowerneck -8.53298 -8.10672 -0.652419
upperneck 5.81483 -10.8913 1.60777
head 3.56706 -5.34141 -0.0147234
lclavicle -1.81154e-14 -6.23192e-15 0
lhumerus -48.2376 -30.9611 112.606
lradius 55.5357 0 0
lwrist 3.67714 0 0
lhand 2.29633 -0.456781 0
lfingers 7.12502 0 0
lthumb 27.7626 27.1951 0
rclavicle -1.81154e-14 -6.23192e-15 0
rhumerus -46.7573 20.9991 -95.439
rradius 75.7234 0 0
rwrist 24.4834 0 0
rhand -13.9385 -20.9321 0
rfingers 7.12502 0 0
rthumb 12.1867 -770.51 0
486
root 4.60218 16.4155 -6.39898 6.71747 75.6624 -1.8613
lfemur -30.4295 -12.9122 -22.3896
ltibia 46.4226 0 0
lfoot -22.2616 -4.65692 0
ltoes 17.4252 0 0
rfemur -49.9625 2.11473 11.1051
rtibia 77.1896 0 0
rfoot 10.9803 4.11914 0
rtoes -18.4549 0 0
lowerback 4.23963 -0.400611 -0.561367
upperback 0.0785769 -0.545621 0.714238
thorax -2.26494 -0.257861 1.08501
lowerneck -8.56724 -8.25927 -0.766098
upperneck 5.94984 -11.0887 1.64276
head 3.62399 -5.43799 0.00221872
lclavicle -1.75369e-14 -6.40252e-15 0
lhumerus -48.3934 -31.1231 112.879
lradius 55.5899 0 0
lwrist 3.68019 0 0
lhand 3.04342 -0.247988 0
lfingers 7.12502 0 0
lthumb 28.4814 27.3475 0
rclavicle -1.75369e-14 -6.40252e-15 0
rhumerus -46.6963 21.5607 -95.6691
rradius 75.976 0 0
rwrist 24.8109 0 0
rhand -13.6121 -20.8588 0
rfingers 7.12502 0 0
rthumb 12.5017 -770.427 0
487
root 4.66612 16.4355 -6.35457 6.75175 76.7787 -1.58126
lfemur -29.8672 -13.7185 -22.6614
ltibia 46.0649 0 0
lfoot -22.3405 -4.70573 0
ltoes 17.755 0 0
rfemur -50.8996 2.36046 11.0813
rtibia 78.1092 0 0
rfoot 11.3696 4.59433 0
rtoes -17.7592 0 0
lowerback 4.24852 -0.431348 -0.711481
upperback 0.069689 -0.593515 0.687488
thorax -2.28116 -0.280874 1.14405
lowerneck -8.59782 -8.39542 -0.867556
upperneck 6.07034 -11.2648 1.674
head 3.6748 -5.52419 0.0173396
lclavicle -1.70206e-14 -6.55479e-15 0
lhumerus -48.5325 -31.2676 113.122
lradius 55.6383 0 0
lwrist 3.6829 0 0
lhand 3.7102 -0.0616396 0
lfingers 7.12502 0 0
lthumb 29.1229 27.4836 0
rclavicle -1.70206e-14 -6.55479e-15 0
rhumerus -46.6418 22.062 -95.8744
rradius 76.2014 0 0
rwrist 25.1032 0 0
rhand -13.3209 -20.7933 0
rfingers 7.12502 0 0
rthumb 12.7828 -770.353 0
